<svg width="1600" height="900" viewBox="0 0 1600 900" fill="none" xmlns="http://www.w3.org/2000/svg">
  <rect width="1600" height="900" rx="48" fill="#F6F3EC"/>
  <rect x="72" y="72" width="1456" height="756" rx="40" fill="#FFFFFF"/>
  <rect x="120" y="120" width="1360" height="660" rx="32" fill="url(#paint0_linear)"/>
  <rect x="168" y="168" width="540" height="564" rx="28" fill="#17385B"/>
  <text x="220" y="250" fill="#F5F7FA" font-family="Arial, Helvetica, sans-serif" font-size="54" font-weight="700">
    First 90 Days
  </text>
  <text x="220" y="312" fill="#E9B75D" font-family="Arial, Helvetica, sans-serif" font-size="28" font-weight="700" letter-spacing="6">
    CORPORATE ROADMAP
  </text>
  <rect x="220" y="374" width="436" height="92" rx="24" fill="#F6F3EC" fill-opacity="0.1"/>
  <text x="256" y="422" fill="#E9B75D" font-family="Arial, Helvetica, sans-serif" font-size="24" font-weight="700">
    DAYS 1-30
  </text>
  <text x="256" y="456" fill="#FFFFFF" font-family="Arial, Helvetica, sans-serif" font-size="30" font-weight="700">
    Listen and Learn
  </text>
  <rect x="220" y="490" width="436" height="92" rx="24" fill="#F6F3EC" fill-opacity="0.1"/>
  <text x="256" y="538" fill="#E9B75D" font-family="Arial, Helvetica, sans-serif" font-size="24" font-weight="700">
    DAYS 31-60
  </text>
  <text x="256" y="572" fill="#FFFFFF" font-family="Arial, Helvetica, sans-serif" font-size="30" font-weight="700">
    Contribute and Connect
  </text>
  <rect x="220" y="606" width="436" height="92" rx="24" fill="#F6F3EC" fill-opacity="0.1"/>
  <text x="256" y="654" fill="#E9B75D" font-family="Arial, Helvetica, sans-serif" font-size="24" font-weight="700">
    DAYS 61-90
  </text>
  <text x="256" y="688" fill="#FFFFFF" font-family="Arial, Helvetica, sans-serif" font-size="30" font-weight="700">
    Lead and Expand
  </text>
  <rect x="778" y="170" width="648" height="560" rx="30" fill="#FFFFFF" fill-opacity="0.72"/>
  <text x="834" y="246" fill="#17385B" font-family="Arial, Helvetica, sans-serif" font-size="32" font-weight="700">
    What makes a strong start
  </text>
  <circle cx="856" cy="320" r="12" fill="#E8A838"/>
  <text x="890" y="330" fill="#23314A" font-family="Arial, Helvetica, sans-serif" font-size="28">
    Ask smart questions early
  </text>
  <circle cx="856" cy="392" r="12" fill="#E8A838"/>
  <text x="890" y="402" fill="#23314A" font-family="Arial, Helvetica, sans-serif" font-size="28">
    Learn the team's unwritten rules
  </text>
  <circle cx="856" cy="464" r="12" fill="#E8A838"/>
  <text x="890" y="474" fill="#23314A" font-family="Arial, Helvetica, sans-serif" font-size="28">
    Build visibility through small wins
  </text>
  <circle cx="856" cy="536" r="12" fill="#E8A838"/>
  <text x="890" y="546" fill="#23314A" font-family="Arial, Helvetica, sans-serif" font-size="28">
    Keep stakeholders updated clearly
  </text>
  <circle cx="856" cy="608" r="12" fill="#E8A838"/>
  <text x="890" y="618" fill="#23314A" font-family="Arial, Helvetica, sans-serif" font-size="28">
    Turn feedback into a repeatable plan
  </text>
  <rect x="814" y="660" width="390" height="36" rx="18" fill="#17385B" fill-opacity="0.08"/>
  <text x="842" y="685" fill="#17385B" font-family="Arial, Helvetica, sans-serif" font-size="20" font-weight="700" letter-spacing="2.4">
    GRAD2OFFICE SAMPLE FEATURE IMAGE
  </text>
  <defs>
    <linearGradient id="paint0_linear" x1="120" y1="120" x2="1480" y2="780" gradientUnits="userSpaceOnUse">
      <stop stop-color="#EEF4FB"/>
      <stop offset="1" stop-color="#F4E8CF"/>
    </linearGradient>
  </defs>
</svg>
